<?xml version="1.0" encoding="utf-8"?>
<!-- Generator: Adobe Illustrator 19.2.1, SVG Export Plug-In . SVG Version: 6.00 Build 0)  -->
<svg version="1.1" id="layer" xmlns="http://www.w3.org/2000/svg" xmlns:xlink="http://www.w3.org/1999/xlink" x="0px" y="0px"
	 viewBox="0 0 652 652" style="enable-background:new 0 0 652 652;" xml:space="preserve">
<style type="text/css">
	.st0{fill:#15003E;}
	.st1{fill:#0FCE7C;}
	.st2{fill:#FFFFFF;}
	.st3{fill:#EFF4EE;}
	.st4{fill:#25E899;}
</style>
<g>
	<path class="st0" d="M-22.8,509.9h43.7v3.5c0,8-0.9,15-2.8,21.1c-1.8,5.7-4.9,11-9.3,15.9c-9.8,11.1-22.3,16.6-37.5,16.6
		c-14.8,0-27.5-5.3-38-16c-10.6-10.7-15.8-23.6-15.8-38.7c0-15.4,5.4-28.4,16.1-39.1c10.7-10.7,23.8-16.1,39.2-16.1
		c8.3,0,16,1.7,23.2,5.1c6.9,3.4,13.6,8.8,20.2,16.4L4.8,489.5c-8.7-11.6-19.3-17.3-31.7-17.3c-11.2,0-20.6,3.9-28.2,11.6
		c-7.6,7.6-11.4,17.1-11.4,28.5c0,11.8,4.2,21.5,12.7,29.1c7.9,7.1,16.5,10.6,25.7,10.6c7.9,0,14.9-2.6,21.2-7.9
		c6.3-5.3,9.8-11.7,10.5-19.1h-26.4V509.9z"/>
	<path class="st0" d="M77.5,459.2h16v105.9h-16V459.2z"/>
	<path class="st0" d="M184.7,474.2v90.8h-16v-90.8h-24.3v-15h64.6v15H184.7z M334.2,464.9v18.9c-9.2-7.7-18.8-11.6-28.7-11.6
		c-10.9,0-20,3.9-27.5,11.7c-7.5,7.8-11.2,17.3-11.2,28.5c0,11.1,3.7,20.5,11.2,28.1c7.5,7.6,16.7,11.4,27.6,11.4
		c5.6,0,10.4-0.9,14.3-2.7c2.2-0.9,4.5-2.1,6.8-3.7c2.4-1.6,4.8-3.4,7.4-5.6v19.3c-9.1,5.2-18.7,7.8-28.8,7.8
		c-15.1,0-28-5.3-38.7-15.8c-10.6-10.6-16-23.5-16-38.5c0-13.5,4.5-25.5,13.4-36.1c11-12.9,25.2-19.4,42.6-19.4
		C316.1,457.2,325.3,459.7,334.2,464.9"/>
	<path class="st1" d="M410.5,495c0,11.7,3.9,21.3,11.8,28.8c7.8,7.5,16.8,11.3,27.1,11.3c11.1,0,20.5-3.8,28.1-11.5
		c7.6-7.8,11.5-17.2,11.5-28.4c0-11.3-3.8-20.7-11.3-28.4c-7.5-7.7-16.8-11.5-27.8-11.5c-11,0-20.3,3.8-27.9,11.5
		C414.3,474.5,410.5,483.8,410.5,495 M394.4,494.8c0-14.9,5.5-27.7,16.4-38.4c10.9-10.7,23.9-16,39.2-16c15.1,0,28,5.4,38.8,16.2
		c10.8,10.8,16.2,23.7,16.2,38.9c0,15.2-5.4,28.1-16.3,38.7c-10.9,10.7-24.1,16-39.6,16c-13.7,0-25.9-4.7-36.8-14.2
		C400.4,525.5,394.4,511.8,394.4,494.8"/>
	<path class="st0" d="M552.1,459.2h16v105.9h-16V459.2z"/>
	<path class="st0" d="M630,565.1V452l77.2,80.8v-73.6h16v112.3L646,491v74.1L630,565.1L630,565.1z"/>
	<path class="st2" d="M361.1,204.7l17.2,33.9l-13.1,55.5l-31.1-25.4l5.5-40.7C339.6,228,361.1,204.7,361.1,204.7z"/>
	<path class="st0" d="M315.2,193.3c-3.6,0-6.5-2.9-6.5-6.5v-51.1c0-3.6,2.9-6.5,6.5-6.5c3.6,0,6.5,2.9,6.5,6.5v51.1
		C321.6,190.4,318.7,193.3,315.2,193.3"/>
	<path class="st0" d="M325.6,193.3h-20.1c-3.6-0.1-6.4-3-6.4-6.6c0.1-3.5,2.9-6.3,6.4-6.4h20.1c3.6,0.1,6.4,3,6.4,6.6
		C331.9,190.5,329,193.3,325.6,193.3"/>
	<path class="st2" d="M361.1,204.7l21.3-20.1c-16.3-16.3-38.9-26.4-63.7-26.4c-49.8,0-90.2,40.4-90.2,90.2s40.4,90.2,90.2,90.2
		c18.6,0,34.9,6.8,49.2-2.8l17.8,2.5l-0.5-29l-51.1-40.5l11-51.7L361.1,204.7"/>
	<path class="st0" d="M318.7,347.4c-54.6,0-99-44.4-99-99s44.4-99,99-99c26.4,0,51.3,10.3,70,29l6.4,6.4l-28,26.3l-12.1-12.9
		l14.3-13.5c-14.3-11.5-32-17.7-50.7-17.7c-44.8,0-81.3,36.5-81.3,81.3c0,44.8,36.5,81.3,81.3,81.3"/>
	<path class="st1" d="M368.4,296.5l-12.7-12.3c9.4-9.7,14.5-22.4,14.5-35.8c0-14-5.5-27.2-15.6-36.9L348,205l7.1-6.7l6.1,6.4l5.8-6
		c13.5,13.1,21,30.8,21,49.6C387.9,266.4,381,283.5,368.4,296.5"/>
	<path class="st3" d="M298.4,248.4c0-11.2,9.1-20.4,20.4-20.4c11.2,0,20.4,9.1,20.4,20.4c0,11.2-9.1,20.4-20.4,20.4
		C307.5,268.7,298.4,259.6,298.4,248.4"/>
	<path class="st0" d="M318.7,236.9c-6.3,0-11.5,5.2-11.5,11.5c0,6.3,5.2,11.5,11.5,11.5c6.3,0,11.5-5.2,11.5-11.5
		C330.2,242,325.1,236.9,318.7,236.9 M318.7,277.6c-16.1,0-29.2-13.1-29.2-29.2s13.1-29.2,29.2-29.2c16.1,0,29.2,13.1,29.2,29.2
		S334.8,277.6,318.7,277.6 M382.5,184.6L331,232.2"/>
	<path class="st0" d="M376.5,178.1l12,13L337,238.7l-12-13L376.5,178.1z"/>
	<path class="st2" d="M328.3,266.3l37,27.8l20,15v38.2l-40.1-1.9"/>
	<path class="st0" d="M394.1,347.4h-77v-17.7h59.3v-16.1L323,273.4l10.6-14.1l60.5,45.5V347.4z"/>
	<path class="st4" d="M400.4,140.6l7.1-7.1l7.1,7.1l-7.1,7.1L400.4,140.6z M369.9,106.4l3.4-3.4l3.4,3.4l-3.4,3.4L369.9,106.4z"/>
	<path class="st4" d="M411.9,76.6c0-2.8-2.3-5.1-5.1-5.1c-2.8,0-5.1,2.3-5.1,5.1c0,2.8,2.3,5.1,5.1,5.1
		C409.6,81.7,411.9,79.5,411.9,76.6"/>
	<path class="st0" d="M284.4,211.2c-3.6,0-6.5-2.9-6.5-6.5v-69c0.1-3.6,3-6.4,6.6-6.4c3.5,0.1,6.3,2.9,6.4,6.4v69
		C290.9,208.3,288,211.2,284.4,211.2"/>
</g>
</svg>
